# xmcd
#
# Track frame offsets:
#	150
#	14463
#	30780
#	48604
#	65620
#	78631
#	93970
#	114652
#	127003
#	146672
#	168356
#	187922
#
# Disc length: 2696 seconds
#
# Revision: 1
# Processed by: cddbd v1.5.2PL0 Copyright (c) Steve Scherf et al.
# Submitted via: audiograbber 1.83.01
#
DISCID=9e0a860c
DTITLE=The Wood Brothers - Ways Not To Lose
DYEAR=2006
DGENRE=Country
TTITLE0=One More Day
TTITLE1=Tried and Tempted
TTITLE2=Luckiest Man
TTITLE3=Glad
TTITLE4=Chocolate On My Tongue
TTITLE5=Atlas
TTITLE6=Time To Stand Still
TTITLE7=The Truth Is The Light
TTITLE8=Spirit
TTITLE9=Angel Band
TTITLE10=Where My Baby Might Be
TTITLE11=That's What Angels Can Do
EXTD=
EXTT0=
EXTT1=
EXTT2=
EXTT3=
EXTT4=
EXTT5=
EXTT6=
EXTT7=
EXTT8=
EXTT9=
EXTT10=
EXTT11=
PLAYORDER=
